<svg width="147" height="37" viewBox="0 0 147 37" fill="none" xmlns="http://www.w3.org/2000/svg">
<path d="M47.0396 25.1162C46.9066 25.1162 46.7926 25.0695 46.6996 24.9762C46.6066 24.8829 46.5596 24.7695 46.5596 24.6362V11.5962C46.5596 11.4495 46.6066 11.3362 46.6996 11.2562C46.7926 11.1629 46.9066 11.1162 47.0396 11.1162H48.9196C49.0666 11.1162 49.1796 11.1629 49.2596 11.2562C49.3526 11.3362 49.3996 11.4495 49.3996 11.5962V22.7162H55.7396C55.8866 22.7162 56.0066 22.7629 56.0996 22.8562C56.1926 22.9495 56.2396 23.0629 56.2396 23.1962V24.6362C56.2396 24.7695 56.1926 24.8829 56.0996 24.9762C56.0066 25.0695 55.8866 25.1162 55.7396 25.1162H47.0396ZM60.9606 25.3162C60.2806 25.3162 59.6536 25.1829 59.0806 24.9162C58.5206 24.6362 58.0736 24.2629 57.7406 23.7962C57.4206 23.3295 57.2606 22.8162 57.2606 22.2562C57.2606 21.3495 57.6276 20.6162 58.3606 20.0562C59.0936 19.4962 60.1006 19.1162 61.3806 18.9162L64.1206 18.5162V18.0962C64.1206 17.5229 63.9736 17.0895 63.6806 16.7962C63.3876 16.5029 62.9206 16.3562 62.2806 16.3562C61.8406 16.3562 61.4876 16.4362 61.2206 16.5962C60.9536 16.7562 60.7336 16.9229 60.5606 17.0962C60.4006 17.2562 60.2936 17.3629 60.2406 17.4162C60.1876 17.5762 60.0876 17.6562 59.9406 17.6562H58.3806C58.2606 17.6562 58.1536 17.6162 58.0606 17.5362C57.9806 17.4562 57.9406 17.3495 57.9406 17.2162C57.9536 16.8829 58.1136 16.5095 58.4206 16.0962C58.7406 15.6695 59.2276 15.3029 59.8806 14.9962C60.5336 14.6762 61.3406 14.5162 62.3006 14.5162C63.8736 14.5162 65.0206 14.8695 65.7406 15.5762C66.4606 16.2829 66.8206 17.2095 66.8206 18.3562V24.6362C66.8206 24.7695 66.7736 24.8829 66.6806 24.9762C66.6006 25.0695 66.4876 25.1162 66.3406 25.1162H64.6806C64.5476 25.1162 64.4336 25.0695 64.3406 24.9762C64.2476 24.8829 64.2006 24.7695 64.2006 24.6362V23.8562C63.9076 24.2829 63.4936 24.6362 62.9606 24.9162C62.4276 25.1829 61.7606 25.3162 60.9606 25.3162ZM61.6406 23.3962C62.3736 23.3962 62.9736 23.1562 63.4406 22.6762C63.9076 22.1962 64.1406 21.5029 64.1406 20.5962V20.1962L62.1406 20.5162C60.6076 20.7562 59.8406 21.2695 59.8406 22.0562C59.8406 22.4829 60.0136 22.8162 60.3606 23.0562C60.7206 23.2829 61.1476 23.3962 61.6406 23.3962ZM73.3456 25.3162C72.3326 25.3162 71.4856 25.1629 70.8056 24.8562C70.1256 24.5495 69.6196 24.1962 69.2856 23.7962C68.9656 23.3829 68.8056 23.0295 68.8056 22.7362C68.8056 22.6029 68.8456 22.4962 68.9256 22.4162C69.0196 22.3362 69.1256 22.2962 69.2456 22.2962H70.8856C70.9926 22.2962 71.0856 22.3495 71.1656 22.4562C71.2326 22.5095 71.3796 22.6362 71.6056 22.8362C71.8456 23.0362 72.1126 23.1962 72.4056 23.3162C72.7126 23.4229 73.0456 23.4762 73.4056 23.4762C73.9396 23.4762 74.3726 23.3762 74.7056 23.1762C75.0396 22.9629 75.2056 22.6629 75.2056 22.2762C75.2056 22.0095 75.1256 21.7962 74.9656 21.6362C74.8196 21.4629 74.5456 21.3095 74.1456 21.1762C73.7596 21.0295 73.1726 20.8695 72.3856 20.6962C71.2526 20.4562 70.4126 20.0895 69.8656 19.5962C69.3326 19.1029 69.0656 18.4495 69.0656 17.6362C69.0656 17.1029 69.2256 16.6029 69.5456 16.1362C69.8656 15.6562 70.3396 15.2695 70.9656 14.9762C71.6056 14.6695 72.3656 14.5162 73.2456 14.5162C74.1526 14.5162 74.9326 14.6629 75.5856 14.9562C76.2396 15.2362 76.7326 15.5762 77.0656 15.9762C77.4126 16.3762 77.5856 16.7295 77.5856 17.0362C77.5856 17.1562 77.5396 17.2629 77.4456 17.3562C77.3656 17.4362 77.2656 17.4762 77.1456 17.4762H75.6456C75.4996 17.4762 75.3856 17.4229 75.3056 17.3162C75.2126 17.2495 75.0596 17.1295 74.8456 16.9562C74.6456 16.7695 74.4196 16.6229 74.1656 16.5162C73.9126 16.4095 73.6056 16.3562 73.2456 16.3562C72.7526 16.3562 72.3726 16.4629 72.1056 16.6762C71.8396 16.8895 71.7056 17.1695 71.7056 17.5162C71.7056 17.7562 71.7656 17.9562 71.8856 18.1162C72.0196 18.2762 72.2796 18.4295 72.6656 18.5762C73.0526 18.7095 73.6326 18.8495 74.4056 18.9962C76.8056 19.4629 78.0056 20.5095 78.0056 22.1362C78.0056 23.0829 77.5926 23.8495 76.7656 24.4362C75.9526 25.0229 74.8126 25.3162 73.3456 25.3162ZM80.5496 25.1162C80.4166 25.1162 80.3036 25.0695 80.2096 24.9762C80.1166 24.8829 80.0696 24.7695 80.0696 24.6362V11.3962C80.0696 11.2495 80.1166 11.1362 80.2096 11.0562C80.3036 10.9629 80.4166 10.9162 80.5496 10.9162H82.2296C82.3766 10.9162 82.4896 10.9629 82.5696 11.0562C82.6636 11.1362 82.7096 11.2495 82.7096 11.3962V24.6362C82.7096 24.7695 82.6636 24.8829 82.5696 24.9762C82.4896 25.0695 82.3766 25.1162 82.2296 25.1162H80.5496ZM89.8626 25.3162C88.3696 25.3162 87.1826 24.8895 86.3026 24.0362C85.4356 23.1829 84.9756 21.9695 84.9226 20.3962L84.9026 19.8962C84.9026 18.2295 85.3356 16.9162 86.2026 15.9562C87.0826 14.9962 88.2956 14.5162 89.8426 14.5162C91.4296 14.5162 92.6496 14.9962 93.5026 15.9562C94.3696 16.9162 94.8026 18.1962 94.8026 19.7962V20.2162C94.8026 20.3495 94.7556 20.4629 94.6626 20.5562C94.5696 20.6495 94.4496 20.6962 94.3026 20.6962H87.6626V20.8562C87.6896 21.6029 87.8896 22.2229 88.2626 22.7162C88.6496 23.1962 89.1756 23.4362 89.8426 23.4362C90.6026 23.4362 91.2226 23.1295 91.7026 22.5162C91.8226 22.3695 91.9156 22.2829 91.9826 22.2562C92.0496 22.2162 92.1626 22.1962 92.3226 22.1962H94.0826C94.2026 22.1962 94.3026 22.2295 94.3826 22.2962C94.4756 22.3629 94.5226 22.4562 94.5226 22.5762C94.5226 22.8962 94.3296 23.2762 93.9426 23.7162C93.5696 24.1429 93.0296 24.5162 92.3226 24.8362C91.6156 25.1562 90.7956 25.3162 89.8626 25.3162ZM92.0426 18.9962V18.9562C92.0426 18.1695 91.8426 17.5429 91.4426 17.0762C91.0556 16.5962 90.5226 16.3562 89.8426 16.3562C89.1626 16.3562 88.6296 16.5962 88.2426 17.0762C87.8556 17.5429 87.6626 18.1695 87.6626 18.9562V18.9962H92.0426ZM100.885 25.3162C99.8716 25.3162 99.0246 25.1629 98.3446 24.8562C97.6646 24.5495 97.1586 24.1962 96.8246 23.7962C96.5046 23.3829 96.3446 23.0295 96.3446 22.7362C96.3446 22.6029 96.3846 22.4962 96.4646 22.4162C96.5586 22.3362 96.6646 22.2962 96.7846 22.2962H98.4246C98.5316 22.2962 98.6246 22.3495 98.7046 22.4562C98.7716 22.5095 98.9186 22.6362 99.1446 22.8362C99.3846 23.0362 99.6516 23.1962 99.9446 23.3162C100.252 23.4229 100.585 23.4762 100.945 23.4762C101.479 23.4762 101.912 23.3762 102.245 23.1762C102.579 22.9629 102.745 22.6629 102.745 22.2762C102.745 22.0095 102.665 21.7962 102.505 21.6362C102.359 21.4629 102.085 21.3095 101.685 21.1762C101.299 21.0295 100.712 20.8695 99.9246 20.6962C98.7916 20.4562 97.9516 20.0895 97.4046 19.5962C96.8716 19.1029 96.6046 18.4495 96.6046 17.6362C96.6046 17.1029 96.7646 16.6029 97.0846 16.1362C97.4046 15.6562 97.8786 15.2695 98.5046 14.9762C99.1446 14.6695 99.9046 14.5162 100.785 14.5162C101.692 14.5162 102.472 14.6629 103.125 14.9562C103.779 15.2362 104.272 15.5762 104.605 15.9762C104.952 16.3762 105.125 16.7295 105.125 17.0362C105.125 17.1562 105.079 17.2629 104.985 17.3562C104.905 17.4362 104.805 17.4762 104.685 17.4762H103.185C103.039 17.4762 102.925 17.4229 102.845 17.3162C102.752 17.2495 102.599 17.1295 102.385 16.9562C102.185 16.7695 101.959 16.6229 101.705 16.5162C101.452 16.4095 101.145 16.3562 100.785 16.3562C100.292 16.3562 99.9116 16.4629 99.6446 16.6762C99.3786 16.8895 99.2446 17.1695 99.2446 17.5162C99.2446 17.7562 99.3046 17.9562 99.4246 18.1162C99.5586 18.2762 99.8186 18.4295 100.205 18.5762C100.592 18.7095 101.172 18.8495 101.945 18.9962C104.345 19.4629 105.545 20.5095 105.545 22.1362C105.545 23.0829 105.132 23.8495 104.305 24.4362C103.492 25.0229 102.352 25.3162 100.885 25.3162ZM111.63 25.1162C111.403 25.1162 111.216 25.0629 111.07 24.9562C110.936 24.8362 110.843 24.6895 110.79 24.5162L106.75 11.7162L106.71 11.5362C106.71 11.4295 106.75 11.3362 106.83 11.2562C106.923 11.1629 107.03 11.1162 107.15 11.1162H109.77C109.97 11.1162 110.13 11.1762 110.25 11.2962C110.383 11.4029 110.47 11.5229 110.51 11.6562L113.23 20.6962L115.97 11.6562C116.01 11.5095 116.09 11.3829 116.21 11.2762C116.343 11.1695 116.51 11.1162 116.71 11.1162H119.33C119.45 11.1162 119.55 11.1629 119.63 11.2562C119.71 11.3362 119.75 11.4295 119.75 11.5362C119.75 11.6029 119.743 11.6629 119.73 11.7162L115.67 24.5162C115.63 24.6895 115.536 24.8362 115.39 24.9562C115.256 25.0629 115.076 25.1162 114.85 25.1162H111.63ZM122.075 25.1162C121.942 25.1162 121.822 25.0695 121.715 24.9762C121.622 24.8695 121.575 24.7495 121.575 24.6162V11.6362C121.575 11.4895 121.622 11.3695 121.715 11.2762C121.808 11.1695 121.928 11.1162 122.075 11.1162H127.735C129.468 11.1162 130.828 11.5095 131.815 12.2962C132.802 13.0829 133.295 14.2362 133.295 15.7562C133.295 17.2762 132.802 18.4162 131.815 19.1762C130.828 19.9229 129.468 20.2962 127.735 20.2962H125.455V24.6162C125.455 24.7495 125.408 24.8695 125.315 24.9762C125.222 25.0695 125.102 25.1162 124.955 25.1162H122.075ZM127.635 17.4362C128.182 17.4362 128.608 17.2962 128.915 17.0162C129.235 16.7229 129.395 16.2962 129.395 15.7362C129.395 15.2162 129.248 14.7962 128.955 14.4762C128.675 14.1562 128.235 13.9962 127.635 13.9962H125.395V17.4362H127.635ZM135.649 25.1162C135.516 25.1162 135.396 25.0695 135.289 24.9762C135.196 24.8695 135.149 24.7495 135.149 24.6162V11.6362C135.149 11.4895 135.196 11.3695 135.289 11.2762C135.382 11.1695 135.502 11.1162 135.649 11.1162H137.909C138.216 11.1162 138.442 11.2429 138.589 11.4962L143.309 18.9562V11.6362C143.309 11.4895 143.356 11.3695 143.449 11.2762C143.542 11.1695 143.662 11.1162 143.809 11.1162H146.349C146.496 11.1162 146.616 11.1695 146.709 11.2762C146.802 11.3695 146.849 11.4895 146.849 11.6362V24.5962C146.849 24.7429 146.802 24.8695 146.709 24.9762C146.616 25.0695 146.496 25.1162 146.349 25.1162H144.089C143.782 25.1162 143.556 24.9895 143.409 24.7362L138.709 17.5762V24.6162C138.709 24.7629 138.656 24.8829 138.549 24.9762C138.456 25.0695 138.336 25.1162 138.189 25.1162H135.649Z" fill="#0B132A"/>
<path d="M31.1469 13.6477L31.1259 13.626C31.1239 13.6247 31.1219 13.6231 31.1209 13.6212L17.5009 0L3.8799 13.6209C3.8779 13.6225 3.8759 13.6256 3.8759 13.6256L3.85289 13.6474C1.77089 15.7419 0.447895 18.4725 0.0948952 21.4052C-0.258105 24.3379 0.3799 27.3044 1.9059 29.8331C3.4329 32.3619 5.76089 34.3077 8.52089 35.3612C11.2799 36.4147 14.3129 36.5157 17.1359 35.6477C17.3739 35.5751 17.6269 35.5751 17.8649 35.6477C20.6879 36.5153 23.7199 36.4144 26.4799 35.3607C29.2389 34.307 31.5669 32.3613 33.0939 29.8328C34.6199 27.3042 35.2579 24.3379 34.9049 21.4054C34.5529 18.4728 33.2299 15.7422 31.1469 13.6477ZM8.7229 22.6298C8.6569 22.6961 8.60389 22.7749 8.56789 22.8615C8.53289 22.948 8.5139 23.0408 8.5139 23.1346C8.5379 25.5386 9.2179 27.8904 10.4789 29.9371C10.5079 29.9835 10.5209 30.0379 10.5169 30.0922C10.5129 30.1465 10.4919 30.1982 10.4569 30.2399C10.4209 30.2816 10.3739 30.311 10.3209 30.324C10.2679 30.337 10.2119 30.333 10.1619 30.3124C9.2129 29.9135 8.35189 29.3336 7.62489 28.6053C6.13589 27.1162 5.2989 25.097 5.2979 22.9912C5.2969 20.8855 6.13089 18.8652 7.61789 17.3743L17.5009 7.4927L27.3829 17.3743C28.8699 18.865 29.7039 20.8853 29.7029 22.9912C29.7019 25.097 28.8649 27.1162 27.3759 28.6053C26.6489 29.3336 25.7879 29.9135 24.8399 30.3124C24.7889 30.333 24.7329 30.337 24.6799 30.324C24.6269 30.311 24.5799 30.2814 24.5439 30.2399C24.5089 30.1982 24.4879 30.1465 24.4839 30.092C24.4799 30.0377 24.4929 29.9833 24.5219 29.9369C25.7829 27.8904 26.4629 25.5386 26.4879 23.1346C26.4879 23.0408 26.4689 22.948 26.4329 22.8613C26.3969 22.7746 26.3439 22.696 26.2779 22.6296L21.6039 17.6717C21.5569 17.6329 21.4979 17.6116 21.4379 17.6116C21.3769 17.6116 21.3189 17.6329 21.2719 17.6717C21.2259 17.7104 21.1939 17.7644 21.1829 17.824C21.1719 17.8837 21.1829 17.945 21.2129 17.9978C23.0279 21.283 21.4669 26.0017 18.8639 28.6053L18.8499 28.6191C18.4909 28.9745 18.0059 29.1738 17.4999 29.1736C16.9949 29.1734 16.5099 28.9738 16.1509 28.6182L16.1379 28.6053C13.5339 26.0017 11.9739 21.2835 13.7889 17.9985C13.8189 17.9457 13.8299 17.8844 13.8189 17.8247C13.8079 17.7651 13.7759 17.7111 13.7299 17.6724C13.6829 17.6336 13.6249 17.6123 13.5639 17.6123C13.5039 17.6123 13.4449 17.6336 13.3979 17.6724L8.7229 22.6298Z" fill="#F53838"/>
</svg>
