<?xml version="1.0" standalone="no"?>
<!DOCTYPE svg PUBLIC "-//W3C//DTD SVG 20010904//EN"
 "http://www.w3.org/TR/2001/REC-SVG-20010904/DTD/svg10.dtd">
<svg version="1.0" xmlns="http://www.w3.org/2000/svg"
 width="700.000000pt" height="700.000000pt" viewBox="0 0 700.000000 700.000000"
 preserveAspectRatio="xMidYMid meet">
<metadata>
Created by potrace 1.14, written by Peter Selinger 2001-2017
</metadata>
<g transform="translate(0.000000,700.000000) scale(0.100000,-0.100000)"
fill="#000000" stroke="none">
<path d="M2146 6973 c-4 -16 -9 -50 -12 -78 -2 -27 -7 -61 -9 -75 -13 -69 -20
-228 -20 -435 0 -268 9 -384 46 -615 33 -207 135 -588 188 -705 5 -11 24 -58
42 -105 45 -114 175 -375 248 -497 428 -714 1074 -1264 1846 -1573 144 -58
412 -143 520 -165 17 -3 41 -8 55 -11 14 -3 41 -9 60 -14 19 -5 53 -11 75 -15
23 -3 52 -7 65 -10 23 -5 135 -19 220 -29 122 -14 223 -19 420 -18 118 1 229
3 245 6 17 3 66 8 110 11 44 4 87 8 95 10 8 2 40 7 70 10 30 3 62 8 70 10 8 2
31 7 50 10 19 3 78 15 130 26 52 11 103 22 113 24 23 5 33 8 140 40 l87 26 0
1294 c0 712 -2 1295 -3 1295 -2 0 -42 -37 -89 -82 -378 -366 -905 -506 -1422
-377 -347 87 -671 317 -877 624 -130 193 -210 416 -244 675 -7 57 -7 261 1
320 14 111 37 212 74 323 22 65 40 121 40 123 0 2 -524 4 -1164 4 l-1164 0 -6
-27z"/>
<path d="M3299 2796 c-2 -2 -40 -6 -84 -10 -519 -42 -1046 -231 -1495 -537
-144 -98 -299 -228 -435 -364 -173 -173 -274 -292 -390 -464 -53 -78 -53 -78
-103 -158 -28 -45 -155 -289 -157 -303 -1 -3 -14 -32 -29 -65 -61 -133 -154
-422 -180 -555 -3 -14 -12 -61 -21 -105 -9 -44 -17 -93 -20 -110 -2 -16 -7
-51 -10 -77 l-7 -48 1126 0 1125 0 43 82 c65 126 157 234 285 335 57 46 229
124 328 149 113 29 272 35 385 15 292 -53 541 -236 678 -499 l43 -82 1125 0
1126 0 -7 48 c-11 83 -16 117 -20 132 -2 8 -7 35 -10 60 -4 24 -8 47 -10 51
-2 3 -7 21 -10 40 -15 88 -105 392 -134 454 -5 11 -29 65 -52 120 -154 359
-376 683 -664 970 -257 257 -507 438 -823 595 -287 144 -643 256 -927 294 -17
3 -50 7 -75 10 -25 3 -63 9 -85 12 -43 6 -510 15 -516 10z"/>
</g>
</svg>
