<svg width="68" height="45" viewBox="0 0 68 45" fill="none" xmlns="http://www.w3.org/2000/svg">
<path fill-rule="evenodd" clip-rule="evenodd" d="M21.9301 29.2874L19.1823 24.7079L16.8619 20.8514L7.00119 26.7738L8.5072 29.2874H21.9301ZM44.7451 29.2874H58.168L40.5731 0L30.7222 5.92247L44.7451 29.2874ZM40.0543 33.877C39.1075 33.2668 37.9981 32.9103 36.7972 32.9103H36.7668C33.4497 32.9306 30.7529 35.6375 30.7529 38.955C30.7529 42.2728 33.4497 44.9794 36.7668 45H36.7972C37.9981 45 39.1075 44.6439 40.0543 44.0333V44.6642H42.8321V29.2877H40.0543V33.877ZM40.0543 39.5862C39.7593 41.1128 38.4055 42.2826 36.7972 42.2826H36.7668C34.9452 42.2624 33.4699 40.7766 33.4699 38.955C33.4699 37.1337 34.9452 35.648 36.7668 35.6375H36.7972C38.4055 35.6375 39.759 36.7979 40.0543 38.3242V39.5862ZM53.1002 33.877C52.1317 33.245 51.0001 32.9091 49.8438 32.9103H49.8127C46.4955 32.9306 43.7991 35.6375 43.7991 38.955C43.7991 42.2728 46.4955 44.9794 49.8127 45H49.8438C51.0447 45 52.1639 44.6439 53.1002 44.0333V44.6642H55.8787V33.2154H53.1002V33.877ZM53.1002 39.5862C52.8052 41.1128 51.4513 42.2826 49.8438 42.2826H49.8127C47.9918 42.2624 46.5161 40.7766 46.5161 38.955C46.5161 37.1337 47.9918 35.648 49.8127 35.6375H49.8438C51.4513 35.6375 52.8048 36.7979 53.1002 38.3242V39.5862ZM65.7596 38.202C65.658 38.1506 65.5152 38.1 65.3521 38.0389C64.7314 37.8253 63.7239 37.5607 62.3195 37.2556C61.0882 36.9805 60.4675 36.6247 60.4675 36.1768C60.4675 35.8613 60.5792 35.6068 60.7929 35.4238C61.0781 35.1795 61.5864 35.0573 62.3195 35.0573C63.0624 35.0573 63.6018 35.2203 63.9173 35.5355C64.1107 35.7289 64.2528 36.0745 64.3446 36.5633H67.2959C67.2959 35.1184 66.7056 34.0805 65.5455 33.4497C65.4844 33.4098 65.4197 33.3758 65.3521 33.3481C64.5478 32.9714 63.4796 32.778 62.1467 32.778C60.5283 32.778 59.3075 33.2057 58.4937 34.0704C57.8427 34.7623 57.5271 35.6068 57.5271 36.6041C57.5271 37.8463 58.1373 38.7413 59.3791 39.3215C59.8472 39.5453 60.9867 39.8609 62.7985 40.2477C64.0095 40.5123 64.6194 40.889 64.6194 41.3673C64.6194 41.6525 64.4979 41.8965 64.2333 42.1203C63.8971 42.4051 63.3881 42.5479 62.7067 42.5479C61.8008 42.5479 61.1598 42.3954 60.7835 42.1004C60.4064 41.8155 60.213 41.3984 60.213 40.8691H57.1197C57.1197 42.2736 57.71 43.3216 58.9004 44.0131C59.8472 44.5525 61.0886 44.8276 62.6257 44.8276C63.6531 44.8276 64.5688 44.6544 65.3525 44.3189C65.5155 44.2477 65.6583 44.1761 65.8109 44.0948C67.0219 43.4235 67.6325 42.3549 67.6325 40.8897C67.6321 39.6877 67.0107 38.7919 65.7596 38.202ZM9.30106 33.877C8.32832 33.2463 7.19385 32.9105 6.03454 32.9103H6.00381C2.6968 32.9306 0 35.6375 0 38.955C0 42.2728 2.6968 44.9794 6.00381 45H6.03454C7.23544 45 8.35465 44.6439 9.30106 44.0333V44.6642H12.0792V33.2154H9.30106V33.877ZM9.30106 39.5862C9.00607 41.1128 7.65225 42.2826 6.03454 42.2826H6.00381C4.19269 42.2624 2.71704 40.7766 2.71704 38.955C2.71704 37.1337 4.19269 35.648 6.00381 35.6375H6.03454C7.65261 35.6375 9.00607 36.7979 9.30106 38.3242V39.5862ZM26.6415 32.0048H29.664V29.3485H26.6415V32.0048ZM26.6415 44.6638H29.664V32.9103H26.6415V44.6638ZM22.4796 33.877C21.5067 33.2462 20.3721 32.9105 19.2127 32.9103H19.1823C15.8648 32.9306 13.168 35.6375 13.168 38.955C13.168 42.2728 15.8645 44.9794 19.1823 45H19.2127C20.3721 45 21.5068 44.6642 22.4796 44.0333V44.6642H25.2577V29.2877H22.4796V33.877ZM22.4796 39.5862C22.1846 41.1128 20.8308 42.2826 19.2127 42.2826H19.1823C17.3607 42.2624 15.8851 40.7766 15.8851 38.955C15.8851 37.1337 17.3607 35.648 19.1823 35.6375H19.2127C20.8308 35.6375 22.1842 36.7979 22.4796 38.3242V39.5862ZM40.0435 29.2874L36.7668 23.8128L28.7176 10.4206L19.1823 16.1602L18.8566 16.3532L19.1823 16.8926L26.6311 29.2874H40.0435Z" fill="#BBC0D0"/>
</svg>
