<svg width="12" height="26" viewBox="0 0 12 26" fill="none" xmlns="http://www.w3.org/2000/svg">
<path fill-rule="evenodd" clip-rule="evenodd" d="M10.1005 17.7766L2.75158 25.5038C2.12347 26.164 1.10355 26.1656 0.473517 25.5073C-0.15644 24.849 -0.158051 23.7801 0.469973 23.1197L7.82393 15.3874C8.44196 14.7431 8.77927 13.8918 8.77853 12.9853C8.77782 12.0789 8.43915 11.2282 7.8249 10.59L0.471827 2.88209C-0.157245 2.22271 -0.157164 1.15377 0.471907 0.494483C1.1009 -0.164884 2.12082 -0.1648 2.7498 0.494568L10.0978 8.19721C11.3211 9.46816 11.9985 11.1695 12 12.9825C12.0015 14.7954 11.3269 16.498 10.1005 17.7766Z" fill="#060714"/>
</svg>
