<svg width="32" height="32" viewBox="0 0 32 32" fill="none" xmlns="http://www.w3.org/2000/svg">
<g clip-path="url(#clip0_4_2820)">
<path d="M15 25.75C15 25.0596 14.4404 24.5 13.75 24.5H6.25C5.55963 24.5 5 25.0596 5 25.75C5 26.4404 5.55963 27 6.25 27H13.75C14.4404 27 15 26.4404 15 25.75Z" fill="#7780a1"/>
<path d="M25.75 7.5C26.4404 7.5 27 6.94036 27 6.25C27 5.55964 26.4404 5 25.75 5C25.0596 5 24.5 5.55964 24.5 6.25C24.5 6.94036 25.0596 7.5 25.75 7.5Z" fill="#7780a1"/>
<path d="M3.75 17.5H8.75C10.8177 17.5 12.5 15.8177 12.5 13.75V3.75C12.5 1.68225 10.8177 0 8.75 0H3.75C1.68225 0 0 1.68225 0 3.75V13.75C0 15.8177 1.68225 17.5 3.75 17.5ZM2.5 3.75C2.5 3.06075 3.06075 2.5 3.75 2.5H8.75C9.43925 2.5 10 3.06075 10 3.75V13.75C10 14.4392 9.43925 15 8.75 15H3.75C3.06075 15 2.5 14.4392 2.5 13.75V3.75Z" fill="#7780a1"/>
<path d="M28.25 0H18.25C16.1823 0 14.5 1.68225 14.5 3.75V13.75C14.5 15.8177 16.1823 17.5 18.25 17.5H28.25C30.3177 17.5 32 15.8177 32 13.75V3.75C32 1.68225 30.3177 0 28.25 0ZM29.5 13.75C29.5 14.4392 28.9392 15 28.25 15H18.25C17.5608 15 17 14.4392 17 13.75V12.0226L20.191 10.4271C20.541 10.252 20.9591 10.252 21.3091 10.4271L25.191 12.3681C25.8098 12.6774 26.56 12.4251 26.8681 11.8091C27.1768 11.1916 26.9266 10.4408 26.3091 10.132L22.4271 8.191C21.3769 7.666 20.1232 7.666 19.073 8.191L17 9.22744V3.75C17 3.06075 17.5608 2.5 18.25 2.5H28.25C28.9392 2.5 29.5 3.06075 29.5 3.75V13.75Z" fill="#7780a1"/>
<path d="M3.75 32H16.25C18.3177 32 20 30.3177 20 28.25V23.25C20 21.1823 18.3177 19.5 16.25 19.5H3.75C1.68225 19.5 0 21.1823 0 23.25V28.25C0 30.3177 1.68225 32 3.75 32ZM2.5 23.25C2.5 22.5608 3.06075 22 3.75 22H16.25C16.9393 22 17.5 22.5608 17.5 23.25V28.25C17.5 28.9392 16.9393 29.5 16.25 29.5H3.75C3.06075 29.5 2.5 28.9392 2.5 28.25V23.25Z" fill="#7780a1"/>
<path d="M28.25 19.5H25.75C23.6823 19.5 22 21.1823 22 23.25V28.25C22 30.3177 23.6823 32 25.75 32H28.25C30.3177 32 32 30.3177 32 28.25V23.25C32 21.1823 30.3177 19.5 28.25 19.5ZM29.5 28.25C29.5 28.9392 28.9392 29.5 28.25 29.5H25.75C25.0608 29.5 24.5 28.9392 24.5 28.25V23.25C24.5 22.5608 25.0608 22 25.75 22H28.25C28.9392 22 29.5 22.5608 29.5 23.25V28.25Z" fill="#7780a1"/>
<path d="M6.25 12.5C6.94037 12.5 7.5 11.9404 7.5 11.25V6.25C7.5 5.55963 6.94037 5 6.25 5C5.55963 5 5 5.55963 5 6.25V11.25C5 11.9404 5.55963 12.5 6.25 12.5Z" fill="#7780a1"/>
</g>
<defs>
<clipPath id="clip0_4_2820">
<rect width="32" height="32" fill="white"/>
</clipPath>
</defs>
</svg>
