<svg width="32" height="32" viewBox="0 0 32 32" fill="none" xmlns="http://www.w3.org/2000/svg">
<path d="M16 12.5C18.0677 12.5 19.75 10.8177 19.75 8.75C19.75 6.68225 18.0677 5 16 5C13.9323 5 12.25 6.68225 12.25 8.75C12.25 10.8177 13.9323 12.5 16 12.5ZM16 7.5C16.6892 7.5 17.25 8.06075 17.25 8.75C17.25 9.43925 16.6892 10 16 10C15.3108 10 14.75 9.43925 14.75 8.75C14.75 8.06075 15.3108 7.5 16 7.5Z" fill="#7780a1"/>
<path d="M6.25 32H11.25C14.6963 32 17.5 29.1962 17.5 25.75V20.75C17.5 17.3038 14.6963 14.5 11.25 14.5H6.25C2.80369 14.5 0 17.3038 0 20.75V25.75C0 29.1962 2.80369 32 6.25 32ZM2.5 20.75C2.5 18.6823 4.18225 17 6.25 17H11.25C13.3177 17 15 18.6823 15 20.75V25.75C15 27.8177 13.3177 29.5 11.25 29.5H6.25C4.18225 29.5 2.5 27.8177 2.5 25.75V20.75Z" fill="#7780a1"/>
<path d="M23.5 12.5C24.1904 12.5 24.75 11.9404 24.75 11.25V6.25C24.75 2.80375 21.9463 0 18.5 0H13.5C10.0537 0 7.25 2.80375 7.25 6.25V11.25C7.25 11.9404 7.80963 12.5 8.5 12.5C9.19037 12.5 9.75 11.9404 9.75 11.25V6.25C9.75 4.18225 11.4323 2.5 13.5 2.5H18.5C20.5677 2.5 22.25 4.18225 22.25 6.25V11.25C22.25 11.9404 22.8096 12.5 23.5 12.5Z" fill="#7780a1"/>
<path d="M25.7503 14.5H20.7503C20.2209 14.5 19.6945 14.5665 19.1859 14.6977C18.5174 14.8701 18.1152 15.5517 18.2876 16.2202C18.46 16.8887 19.1419 17.2909 19.8101 17.1185C20.115 17.0399 20.4314 17 20.7503 17H25.7503C27.818 17 29.5003 18.6823 29.5003 20.75V25.75C29.5003 27.8177 27.818 29.5 25.7503 29.5H20.7503C20.4314 29.5 20.115 29.4601 19.8101 29.3815C19.1418 29.2091 18.4599 29.6113 18.2876 30.2798C18.1152 30.9483 18.5174 31.6299 19.1859 31.8023C19.6945 31.9335 20.2209 32 20.7503 32H25.7503C29.1966 32 32.0003 29.1962 32.0003 25.75V20.75C32.0003 17.3038 29.1966 14.5 25.7503 14.5Z" fill="#7780a1"/>
<path d="M19.866 26.6339C20.3542 27.122 21.1457 27.1221 21.6338 26.6339L23.25 25.0178L24.866 26.6339C25.3542 27.122 26.1457 27.1221 26.6338 26.6339C27.122 26.1457 27.122 25.3543 26.6338 24.8661L25.0178 23.25L26.6339 21.6339C27.1221 21.1457 27.1221 20.3543 26.6339 19.8661C26.1457 19.378 25.3542 19.378 24.8661 19.8661L23.25 21.4822L21.6339 19.8661C21.1457 19.378 20.3542 19.378 19.8661 19.8661C19.378 20.3543 19.3779 21.1458 19.8661 21.6339L21.4822 23.25L19.866 24.8661C19.3779 25.3543 19.3779 26.1458 19.866 26.6339V26.6339Z" fill="#7780a1"/>
<path d="M7.5 27H10C11.3785 27 12.5 25.8785 12.5 24.5C12.5 24.1139 12.4091 23.7277 12.2368 23.3827L10.9867 20.8826C10.5603 20.0298 9.70319 19.5 8.75 19.5C7.79681 19.5 6.93969 20.0298 6.51319 20.8827L5.26319 23.3827C5.26312 23.3829 5.263 23.3831 5.26288 23.3832C5.09088 23.7277 5 24.1139 5 24.5C5 25.8785 6.1215 27 7.5 27ZM8.75075 22.0007L10 24.5L7.50037 24.4985L8.75075 22.0007Z" fill="#7780a1"/>
</svg>
