<svg width="15" height="17" viewBox="0 0 15 17" fill="none" xmlns="http://www.w3.org/2000/svg">
<path d="M5.5 0.5C5.22386 0.5 5 0.723858 5 1C5 1.27614 5.22386 1.5 5.5 1.5H9.5C9.77614 1.5 10 1.27614 10 1C10 0.723858 9.77614 0.5 9.5 0.5H5.5ZM13.1563 2.42899C12.961 2.23373 12.6444 2.23373 12.4492 2.42899C12.2539 2.62426 12.2539 2.94084 12.4492 3.1361L13.8634 4.55031C14.0587 4.74558 14.3752 4.74558 14.5705 4.55031C14.7658 4.35505 14.7658 4.03847 14.5705 3.84321L13.1563 2.42899ZM7.5 4.5C7.22386 4.5 7 4.72386 7 5V10C7 10.2761 7.22386 10.5 7.5 10.5C7.77614 10.5 8 10.2761 8 10V5C8 4.72386 7.77614 4.5 7.5 4.5ZM7.5 16.5C11.366 16.5 14.5 13.366 14.5 9.5C14.5 5.63401 11.366 2.5 7.5 2.5C3.63401 2.5 0.5 5.63401 0.5 9.5C0.5 13.366 3.63401 16.5 7.5 16.5ZM7.5 15.5C4.18629 15.5 1.5 12.8137 1.5 9.5C1.5 6.18629 4.18629 3.5 7.5 3.5C10.8137 3.5 13.5 6.18629 13.5 9.5C13.5 12.8137 10.8137 15.5 7.5 15.5Z" fill="#060714"/>
</svg>
