<svg xmlns="http://www.w3.org/2000/svg" xmlns:xlink="http://www.w3.org/1999/xlink" aria-hidden="true" role="img" id="footer-sample-full" width="16" height="16" preserveAspectRatio="xMidYMid meet" viewBox="0 0 32 32" class="iconify iconify--fluent-emoji-high-contrast"><path fill="currentColor" d="M24.879 2.879A3 3 0 1 1 29.12 7.12l-8.79 8.79a.125.125 0 0 0 0 .177l8.79 8.79a3 3 0 1 1-4.242 4.243l-8.79-8.79a.125.125 0 0 0-.177 0l-8.79 8.79a3 3 0 1 1-4.243-4.242l8.79-8.79a.125.125 0 0 0 0-.177l-8.79-8.79A3 3 0 0 1 7.12 2.878l8.79 8.79a.125.125 0 0 0 .177 0l8.79-8.79Z"></path></svg>