<svg width="213" height="34" viewBox="0 0 213 34" fill="none" xmlns="http://www.w3.org/2000/svg">
<path d="M51.5518 26.0002V6.15039H58.8663L66.3439 22.3837H67.2684L66.7246 22.8732V6.15039H70.9121V26.0002H63.5432L56.0655 9.76686H55.141L55.6849 9.27741V26.0002H51.5518Z" fill="white"/>
<path d="M75.5975 26.0002V6.15039H80.0569V26.0002H75.5975ZM79.513 18.0059V14.3078H87.181V18.0059H79.513ZM79.513 9.84843V6.15039H87.5073V9.84843H79.513Z" fill="white"/>
<path d="M95.2214 26.0002V9.49494H99.6808V26.0002H95.2214ZM89.6471 10.0388V6.15039H105.282V10.0388H89.6471Z" fill="white"/>
<path d="M114.25 26.0002V6.15039H120.395L124.936 17.2989H125.453L129.939 6.15039H136.193V26.0002H131.788V9.05988L132.414 9.11426L127.166 21.9758H122.924L117.649 9.11426L118.328 9.05988V26.0002H114.25Z" fill="white"/>
<path d="M149.627 26.0002V21.5952H148.893V16.8095C148.893 16.0481 148.711 15.4771 148.349 15.0964C147.986 14.7157 147.406 14.5254 146.609 14.5254C146.21 14.5254 145.684 14.5344 145.031 14.5526C144.379 14.5707 143.708 14.5979 143.019 14.6341C142.33 14.6704 141.705 14.7066 141.143 14.7429V11.0721C141.56 11.0358 142.049 10.9995 142.611 10.9633C143.173 10.927 143.753 10.8998 144.352 10.8817C144.95 10.8636 145.512 10.8545 146.038 10.8545C147.56 10.8545 148.838 11.072 149.872 11.5071C150.923 11.9422 151.721 12.6038 152.264 13.4921C152.808 14.3622 153.08 15.4861 153.08 16.8638V26.0002H149.627ZM144.868 26.3809C143.799 26.3809 142.856 26.1905 142.04 25.8098C141.243 25.4292 140.617 24.8853 140.164 24.1783C139.711 23.4532 139.484 22.5922 139.484 21.5952C139.484 20.5075 139.765 19.6192 140.327 18.9304C140.889 18.2234 141.678 17.7068 142.693 17.3805C143.708 17.0361 144.877 16.8638 146.201 16.8638H149.382V19.2839H146.174C145.412 19.2839 144.823 19.4742 144.406 19.8549C144.007 20.2175 143.808 20.716 143.808 21.3504C143.808 21.9486 144.007 22.4381 144.406 22.8188C144.823 23.1813 145.412 23.3626 146.174 23.3626C146.663 23.3626 147.098 23.281 147.479 23.1179C147.878 22.9366 148.204 22.6375 148.458 22.2206C148.711 21.8036 148.856 21.2235 148.893 20.4803L149.926 21.568C149.835 22.6012 149.582 23.4714 149.165 24.1783C148.766 24.8853 148.204 25.4292 147.479 25.8098C146.772 26.1905 145.902 26.3809 144.868 26.3809Z" fill="white"/>
<path d="M156.998 26.0002V11.0992H160.451V17.4892H160.37C160.37 15.3864 160.814 13.764 161.702 12.622C162.609 11.4799 163.914 10.9089 165.618 10.9089H166.189V14.6613H165.101C163.905 14.6613 162.98 14.9876 162.328 15.6402C161.675 16.2747 161.349 17.1992 161.349 18.4138V26.0002H156.998Z" fill="white"/>
<path d="M179.165 26.0002L174.461 19.0392H172.368L178.431 11.0992H182.999L177.289 18.4953L177.344 16.3744L184.06 26.0002H179.165ZM168.669 26.0002V6.15039H173.02V26.0002H168.669Z" fill="white"/>
<path d="M192.503 26.5168C191.234 26.5168 190.111 26.2993 189.132 25.8642C188.171 25.4292 187.364 24.8491 186.712 24.124C186.077 23.3807 185.588 22.5559 185.243 21.6495C184.917 20.725 184.754 19.7824 184.754 18.8216V18.2778C184.754 17.2808 184.917 16.3291 185.243 15.4227C185.588 14.4982 186.077 13.6734 186.712 12.9483C187.346 12.2232 188.135 11.6521 189.077 11.2352C190.038 10.8001 191.126 10.5826 192.34 10.5826C193.935 10.5826 195.277 10.9452 196.365 11.6703C197.47 12.3772 198.313 13.3108 198.893 14.471C199.473 15.613 199.764 16.8638 199.764 18.2234V19.6918H186.576V17.2173H197.126L195.712 18.3594C195.712 17.4711 195.585 16.7098 195.331 16.0753C195.077 15.4408 194.697 14.9604 194.189 14.6341C193.7 14.2897 193.083 14.1175 192.34 14.1175C191.579 14.1175 190.935 14.2897 190.41 14.6341C189.884 14.9786 189.485 15.4861 189.213 16.1569C188.941 16.8095 188.805 17.6161 188.805 18.5769C188.805 19.4652 188.932 20.2446 189.186 20.9154C189.44 21.568 189.839 22.0755 190.382 22.4381C190.926 22.8006 191.633 22.9819 192.503 22.9819C193.301 22.9819 193.954 22.8278 194.461 22.5197C194.969 22.2115 195.313 21.8308 195.494 21.3776H199.492C199.274 22.3746 198.848 23.2629 198.214 24.0424C197.579 24.8219 196.782 25.4292 195.821 25.8642C194.86 26.2993 193.754 26.5168 192.503 26.5168Z" fill="white"/>
<path d="M209.644 26.1905C208.139 26.1905 206.925 26.0092 206 25.6467C205.076 25.266 204.396 24.6406 203.961 23.7705C203.544 22.8822 203.335 21.6858 203.335 20.1812V7.0749H207.387V20.3443C207.387 21.0513 207.568 21.5952 207.931 21.9758C208.311 22.3384 208.846 22.5197 209.535 22.5197H211.737V26.1905H209.644ZM201.078 14.2806V11.0992H211.737V14.2806H201.078Z" fill="white"/>
<path d="M0 30.6002C5.63333 30.6002 10.2 26.0335 10.2 20.4002C10.2 14.7669 5.63333 10.2002 0 10.2002V17.3402C1.68998 17.3402 3.05998 18.7102 3.05998 20.4002C3.05998 22.0902 1.68998 23.4602 0 23.4602V30.6002Z" fill="#76DECC"/>
<path d="M33.9997 13.6001C32.2567 13.0479 30.4005 12.75 28.4747 12.75C18.3816 12.75 10.1997 20.9321 10.1997 31.025C10.1997 32.0381 10.2821 33.0319 10.4406 34H21.7955C21.3901 33.0913 21.1648 32.0845 21.1648 31.025C21.1648 26.9878 24.4375 23.715 28.4747 23.715C30.6812 23.715 32.6593 24.6927 33.9997 26.2384V13.6001Z" fill="#EA6CBC"/>
<path d="M1.79346 0C2.63911 7.64992 9.12477 13.6001 17.0001 13.6001C24.8753 13.6001 31.361 7.64992 32.2067 0H21.2649C20.5894 1.69339 18.9344 2.88999 17.0001 2.88999C15.0657 2.88999 13.4108 1.69339 12.7352 0H1.79346Z" fill="#2A27C9"/>
</svg>
