<svg width="32" height="32" viewBox="0 0 32 32" fill="none" xmlns="http://www.w3.org/2000/svg">
<path d="M24.499 27.0007H7.49998C3.36573 27.0007 0.00231934 23.6372 0.00231934 19.503V9.2531C0.00231934 5.11816 3.36636 1.75412 7.50129 1.75412H13.3755C15.0338 1.82011 15.0325 4.18835 13.3755 4.25378H7.50129C4.74467 4.25378 2.50198 6.49647 2.50198 9.2531V19.5029C2.50198 22.2589 4.74411 24.5009 7.49998 24.5009H24.499C27.2556 24.5009 29.4983 22.2583 29.4983 19.5016V9.25303C29.4983 8.29516 29.259 7.39654 28.8063 6.65433C28.4468 6.06503 28.6331 5.29595 29.2224 4.9365C29.8116 4.57705 30.5807 4.76327 30.9402 5.35263C31.6322 6.48704 31.9979 7.83573 31.9979 9.25303V19.5016C31.9979 23.6366 28.6339 27.0007 24.499 27.0007ZM23.2491 30.7502C23.2491 30.0599 22.6896 29.5003 21.9993 29.5003H10.001C8.34268 29.5663 8.34393 31.9346 10.001 32H21.9993C22.6896 32 23.2491 31.4404 23.2491 30.7502ZM20.9406 11.8253C20.9406 11.8253 25.6521 6.43436 25.6591 6.42592C26.3275 5.61903 26.6418 4.60011 26.5439 3.55681C26.4461 2.51358 25.9478 1.5709 25.1409 0.902363C24.3341 0.233892 23.3151 -0.0803779 22.2719 0.0175462C21.2287 0.115408 20.2859 0.613652 19.6214 1.41585L15.0416 6.88873C14.5986 7.4181 14.6686 8.2063 15.1981 8.6493C15.7274 9.09231 16.5157 9.02225 16.9586 8.49289L21.5424 3.01526C21.7849 2.72249 22.1269 2.54176 22.5054 2.50621C22.8843 2.4709 23.2536 2.58476 23.5462 2.82729C24.1413 3.29991 24.234 4.24084 23.743 4.82045L19.0585 10.1803C18.3507 10.983 18.9416 12.2598 19.9991 12.2527C20.3472 12.2527 20.6936 12.108 20.9406 11.8253ZM25.1239 21.995H19.4372C17.7789 21.929 17.7801 19.5607 19.4372 19.4953H25.1239C26.7822 19.5613 26.7809 21.9296 25.1239 21.995ZM14.1203 20.4844C17.5442 18.6329 18.7339 14.8635 16.4671 11.9845C15.6039 10.9311 14.3842 10.2798 13.0329 10.1508C9.6655 9.85826 7.72251 12.534 6.95524 15.2772C6.67834 16.0965 6.39201 16.9438 5.89045 17.8491C4.78467 19.8055 6.62191 22.0345 8.72388 22.0013C10.3863 22.0014 12.5045 21.4059 14.1203 20.4844ZM12.7954 12.6393C13.4785 12.7044 14.0958 13.0346 14.5336 13.5689C14.9207 14.0413 15.1253 14.6201 15.1253 15.243C15.038 18.1676 10.7078 19.4766 8.72388 19.5018C8.44235 19.5017 8.18882 19.3292 8.09321 19.1669C8.05447 19.1011 8.06153 19.0884 8.0769 19.0606C8.68788 17.9579 9.02546 16.9589 9.32329 16.0775C9.74055 14.8427 10.0421 13.9506 10.92 13.2201H10.9201C11.3845 12.8336 11.9553 12.6275 12.5493 12.6275C12.631 12.6275 12.713 12.6314 12.7954 12.6393Z" fill="#7780a1"/>
</svg>
