<svg width="20" height="20" viewBox="0 0 20 20" fill="none" xmlns="http://www.w3.org/2000/svg">
<path d="M2 0C0.895431 0 0 0.895431 0 2V18C0 19.1046 0.895431 20 2 20H7.68333C7.63881 19.8696 7.6102 19.7182 7.6102 19.5306V17.8792H6.41151C5.7589 17.8792 5.17863 17.595 4.89724 17.0668C4.80259 16.889 4.73165 16.6826 4.65721 16.466C4.48598 15.9678 4.29621 15.4157 3.75658 15.033C3.52686 14.8502 3.70173 14.6417 3.96643 14.6699C4.45529 14.81 4.86068 15.1498 5.24223 15.6538C5.62218 16.1586 5.80103 16.2729 6.51087 16.2729C6.85505 16.2729 7.37014 16.2528 7.85502 16.1755C8.11575 15.5048 8.56645 14.8873 9.11731 14.5958C5.94093 14.2649 4.42508 12.6643 4.42508 10.4911C4.42508 9.55556 4.81855 8.65056 5.48705 7.88808C5.26766 7.13124 4.99184 5.58776 5.57131 5C7.00052 5 7.86456 5.93881 8.07203 6.19243C8.78425 5.94525 9.56642 5.80515 10.3883 5.80515C11.2118 5.80515 11.9972 5.94525 12.711 6.19404C12.9161 5.94203 13.7809 5 15.2133 5C15.7952 5.58857 15.5162 7.13849 15.2944 7.89372C15.9589 8.65459 16.35 9.55717 16.35 10.4911C16.35 12.6626 14.8365 14.2625 11.6649 14.595C12.5377 15.0564 13.1744 16.3527 13.1744 17.3293V19.5306C13.1744 19.6143 13.1561 19.9283 13.1466 20H18C19.1046 20 20 19.1046 20 18V2C20 0.895431 19.1046 0 18 0H2Z" fill="#7780A1"/>
</svg>
