<svg width="40" height="91" viewBox="0 0 40 91" fill="none" xmlns="http://www.w3.org/2000/svg">
<path d="M39.2637 1.10971e-06V26.3517C31.5178 27.9022 25.7486 34.9504 25.7486 43.2911C25.7486 51.6315 31.5178 58.6795 39.2637 60.23V86.582C39.2637 86.582 39.2636 86.582 39.2637 86.582V60.23C31.5178 58.6795 25.7486 51.6315 25.7486 43.2911C25.7486 34.9504 31.5178 27.9022 39.2637 26.3517V1.10971e-06C39.2636 4.95363e-06 39.2637 -2.73438e-06 39.2637 1.10971e-06Z" fill="#76DECC"/>
<path d="M2.64209 43.2911C2.64209 64.4418 17.8296 81.7093 37.2637 84.3563V61.7927C29.3816 59.4538 23.7486 51.9724 23.7486 43.2911C23.7486 34.6095 29.3816 27.128 37.2637 24.7891V2.2257C17.8296 4.87266 2.64209 22.14 2.64209 43.2911Z" fill="#76DECC"/>
</svg>
