<svg width="20" height="18" viewBox="0 0 20 18" fill="none" xmlns="http://www.w3.org/2000/svg">
<path d="M1 15L19 15C19.2652 15 19.5196 15.158 19.7071 15.4393C19.8946 15.7206 20 16.1022 20 16.5C20 16.8978 19.8946 17.2794 19.7071 17.5607C19.5196 17.842 19.2652 18 19 18L1 18C0.734784 18 0.480429 17.842 0.292892 17.5607C0.105356 17.2794 0 16.8978 0 16.5C0 16.1022 0.105356 15.7206 0.292892 15.4393C0.480429 15.158 0.734784 15 1 15ZM9 0L19 0C19.2652 0 19.5196 0.158034 19.7071 0.439339C19.8946 0.720643 20 1.10218 20 1.5C20 1.89782 19.8946 2.27936 19.7071 2.56066C19.5196 2.84197 19.2652 3 19 3L9 3C8.73478 3 8.48043 2.84197 8.29289 2.56066C8.10536 2.27936 8 1.89782 8 1.5C8 1.10218 8.10536 0.720643 8.29289 0.439339C8.48043 0.158034 8.73478 0 9 0ZM1 7.5L19 7.5C19.2652 7.5 19.5196 7.65804 19.7071 7.93934C19.8946 8.22065 20 8.60218 20 9C20 9.39782 19.8946 9.77936 19.7071 10.0607C19.5196 10.342 19.2652 10.5 19 10.5L1 10.5C0.734784 10.5 0.480429 10.342 0.292892 10.0607C0.105356 9.77936 0 9.39782 0 9C0 8.60218 0.105356 8.22065 0.292892 7.93934C0.480429 7.65804 0.734784 7.5 1 7.5Z" fill="#6563FF"/>
</svg>
