<svg width="20" height="20" viewBox="0 0 20 20" fill="none" xmlns="http://www.w3.org/2000/svg">
<path d="M17.5331 16.9951C13.5298 21.0016 7.01155 21.0016 3.00492 16.9951C-1.00164 12.9884 -1.00164 6.47037 3.00492 2.46545C4.06514 1.407 5.35767 0.599292 6.8442 0.0725914C7.31247 -0.09131 7.83091 0.0274818 8.17862 0.376956C8.52986 0.728117 8.64858 1.24647 8.48307 1.71136C7.47637 4.55075 8.162 7.62418 10.269 9.73122C12.3727 11.8364 15.4462 12.5204 18.2889 11.5171C18.7538 11.3516 19.2738 11.4704 19.6233 11.8216C19.9745 12.1693 20.0916 12.6894 19.926 13.156C19.4026 14.6424 18.5932 15.9349 17.5331 16.9951ZM4.82093 4.28145C1.81594 7.28642 1.81594 12.1758 4.82093 15.1791C8.03157 18.3914 13.4997 18.1021 16.299 14.5235C13.4127 14.7041 10.57 13.6624 8.45297 11.547C6.33595 9.43167 5.29586 6.58892 5.47638 3.70274C5.2457 3.8835 5.02657 4.07581 4.82093 4.28145Z" fill="#060606"/>
</svg>
