<svg width="50" height="45" viewBox="0 0 50 45" fill="none" xmlns="http://www.w3.org/2000/svg">
<path fill-rule="evenodd" clip-rule="evenodd" d="M15.0275 37.7738H13.9601L13.3031 43.3578H13.0568L12.2355 37.7738H10.593L9.85387 43.3578H9.68962L8.86866 37.7738H7.80133L8.78683 45H10.5933L11.4143 39.3336H11.4964L12.2355 45H14.1241L15.0275 37.7738ZM16.6697 45H17.8194V42.2902H20.119V45H21.2684V37.8557H20.1187V40.5655H17.8191V37.8557H16.6694L16.6697 45ZM27.3448 41.1404C27.3448 39.0051 26.3596 37.6911 24.5528 37.6911C22.5818 37.6911 21.7609 39.0051 21.7609 41.1404C21.7609 43.1111 22.4179 45 24.5528 45C26.6057 45 27.3448 43.1111 27.3448 41.1404ZM27.8376 45H31.1223V43.3575H28.987V37.7736H27.8376V45ZM39.0051 37.8557H36.8705L35.3101 45H36.5417L36.788 43.686H39.0873L39.3336 45H40.4837L39.0051 37.8557ZM37.6093 39.4164H38.2666L38.8415 42.5365H36.9526L37.6093 39.4164ZM7.30857 45V43.3575H4.92723V41.9617H7.30857V40.9761H4.92723V39.4164H7.30857V37.7738H3.77747V43.5214L1.80676 37.7738H0V45H1.14976L1.06763 39.3336L3.12047 45H7.30857ZM31.615 45H34.8992V43.3575H32.7645V37.7736H31.615V45ZM44.9176 43.5214L42.865 37.7738H41.0583V45H42.2083L42.1259 39.3336L44.179 45H46.8065C49.1881 45 49.6809 43.7678 49.6809 41.058C49.5984 38.8415 48.9417 37.7738 46.8065 37.7738H44.8357V41.058L44.9176 43.5214ZM46.0676 39.3336H46.8889C48.1205 39.3336 48.695 39.7446 48.695 41.3868V41.3044C48.695 42.9469 48.1202 43.4396 46.8889 43.3575H46.0676V39.3336ZM26.2772 41.1404C26.2772 42.208 26.1953 43.4396 24.5528 43.4396C22.9106 43.4396 22.7464 42.208 22.7464 41.1404C22.7464 40.1549 23.2391 39.3336 24.5528 39.3336C25.8668 39.3336 26.2772 40.1549 26.2772 41.1404ZM9.27929 14.5347C9.27929 14.042 9.60779 13.7135 9.85416 13.9598C12.8104 16.9161 23.7319 24.9638 23.6498 32.0254C23.5676 32.4357 23.2391 32.6821 22.8285 32.6821C14.699 32.1075 8.0474 28.9052 9.27929 14.5347ZM34.571 1.97101C32.2717 0.739129 29.8904 0.164549 27.0163 0C26.4414 0 26.1951 0.410627 26.1132 0.90338C25.8668 4.59873 25.9487 6.65157 25.8668 10.2645C25.7844 10.8394 26.1954 11.5785 26.8524 10.7572C29.8901 7.80103 31.615 6.15882 34.6528 3.2026C35.1458 2.79227 34.9819 2.13526 34.571 1.97101ZM14.8632 1.97101C17.2446 0.739129 19.6259 0.164549 22.5 0C23.0749 0 23.3213 0.410627 23.4034 0.90338C23.6498 4.59873 23.5676 6.65157 23.6498 10.2645C23.7319 10.8394 23.3213 11.5785 22.5821 10.7572C19.5441 7.80103 17.8194 6.15882 14.8635 3.2026C14.2883 2.79227 14.5347 2.13526 14.8632 1.97101ZM36.4598 4.27052C30.7114 9.77204 25.6205 13.4671 25.8668 23.3216C25.8668 23.7319 26.1953 24.1428 26.7699 23.6501C31.5326 18.9692 34.2425 16.4236 39.0873 11.7431C39.8264 11.0039 39.9909 10.3469 39.7446 9.19716C39.2518 7.14432 38.8415 6.24094 37.6093 4.59873C37.2811 4.27052 36.9526 4.10598 36.4598 4.27052ZM13.0568 4.27052C18.8046 9.77204 23.8961 13.4674 23.6498 23.3216C23.6498 23.7319 23.3213 24.1428 22.7464 23.6501C17.9834 18.9689 15.2739 16.4236 10.429 11.7431C9.68991 11.0039 9.52566 10.3469 9.77204 9.19716C10.2648 7.14432 10.6754 6.24094 11.907 4.59873C12.2355 4.27052 12.564 4.10598 13.0568 4.27052ZM40.3191 14.5347C40.3191 14.042 40.0728 13.7135 39.7443 13.9598C36.8705 16.9161 25.8666 24.9638 25.9487 32.0254C26.0305 32.4357 26.4414 32.6821 26.8524 32.6821C34.8995 32.1075 41.5507 28.9052 40.3191 14.5347Z" fill="#BBC0D0"/>
</svg>
