<svg width="85" height="45" viewBox="0 0 85 45" fill="none" xmlns="http://www.w3.org/2000/svg">
<path d="M20.6341 23.5053H26.3625L34.8033 1H29.4833L25.6928 11.0934L26.3461 1H20.686L12.2457 23.5053H17.5652L21.2852 13.5485L20.6341 23.5053Z" fill="#BBC0D0"/>
<path d="M35.4934 1L27.0536 23.5053H32.3731L40.8129 1H35.4934Z" fill="#BBC0D0"/>
<path fill-rule="evenodd" clip-rule="evenodd" d="M11.6322 15.748C4.1988 24.4775 -2.81328 36.0928 3.38045 41.4415C9.3294 46.5793 16.7522 43.6092 21.8635 41.564L21.9989 41.5098C27.1139 39.4637 83.6501 14.9124 83.6501 14.9124C84.1956 14.6396 84.0936 14.2985 83.4114 14.4688C83.2955 14.4978 72.3412 17.4651 59.7063 20.8884L60.3336 19.1407H54.1278L56.1668 13.6851H61.2814L62.8551 9.49087H57.7406L59.4939 4.7511H64.8808L66.3104 1H50.0791L44.5059 7.75171L47.079 1H41.6912L33.3187 23.5053H38.6382L42.2128 14.094L42.4576 23.5053L50.1099 23.4886C35.6096 27.4177 21.8627 31.1432 21.8627 31.1432C14.0873 33.3259 5.22162 28.5688 11.6322 15.748ZM47.735 22.0047L47.3939 10.2751L55.4368 1.44444L47.735 22.0047Z" fill="#BBC0D0"/>
</svg>
