<svg width="32" height="32" viewBox="0 0 32 32" fill="none" xmlns="http://www.w3.org/2000/svg">
<g clip-path="url(#clip0_4_2814)">
<path d="M15.5965 18.3172L20.4167 13.3892C20.8991 12.8962 21.6898 12.8876 22.1828 13.3698C22.6758 13.8521 22.6846 14.6428 22.2023 15.1359C22.2023 15.1359 17.3609 20.0853 17.3551 20.091C16.6124 20.8214 15.6444 21.1856 14.6768 21.1857C13.6878 21.1857 12.6994 20.8051 11.9528 20.0459C11.2373 19.3184 10.848 18.3557 10.8565 17.3354C10.865 16.315 11.2704 15.3591 11.9979 14.6436L16.9335 9.7536C17.4236 9.26816 18.2143 9.27191 18.6997 9.76185C19.1851 10.2518 19.1815 11.0426 18.6915 11.528L13.7525 16.4212C13.4974 16.6721 13.3571 17.003 13.3541 17.3563C13.3335 18.0669 13.9544 18.6983 14.6654 18.6896C15.0156 18.6901 15.3456 18.5603 15.5965 18.3172ZM16.0862 31.9965C16.0581 31.9966 16.1145 31.9965 16.0862 31.9965V31.9965ZM31.8308 13.7757C31.7344 13.0927 31.1021 12.6174 30.4196 12.7136C29.7365 12.8101 29.2611 13.4419 29.3575 14.1249C29.4485 14.7692 29.4929 15.4279 29.4895 16.0827C29.4859 16.7683 29.4303 17.4567 29.3242 18.1289C29.2619 18.5241 29.0399 18.8547 28.6992 19.0596C28.3523 19.2684 27.9298 19.3112 27.5398 19.1771C26.7778 18.9152 25.9795 18.7972 25.1659 18.825C21.7248 18.9447 18.9355 21.734 18.8157 25.1752C18.7875 25.9884 18.9059 26.787 19.1679 27.5491C19.3019 27.9391 19.259 28.3617 19.0503 28.7084C18.8454 29.0491 18.5148 29.2712 18.1197 29.3335C17.4474 29.4396 16.7589 29.4952 16.0733 29.4987C8.83158 29.6575 2.35342 23.2719 2.51397 16.0111C2.36385 8.76124 8.75209 2.37263 16.0022 2.52299C16.7493 2.52299 17.499 2.58519 18.2306 2.70789C18.911 2.82173 19.5548 2.36314 19.6688 1.68274C19.7829 1.00247 19.324 0.358611 18.6437 0.244526C9.0886 -1.4963 -0.129234 6.297 0.0161364 16.0113C-0.173444 24.6206 7.49846 32.1856 16.0863 31.9965C16.8975 31.9923 17.7127 31.9264 18.5091 31.8007C20.8309 31.4808 22.3352 28.9328 21.5301 26.7373C20.6146 24.2188 22.5667 21.3661 25.2528 21.3213C25.7592 21.3035 26.2558 21.377 26.7281 21.5392C27.8179 21.9136 29.0058 21.7901 29.9869 21.1998C30.9569 20.6162 31.6146 19.6388 31.7915 18.5182C31.9172 17.7219 31.983 16.9068 31.9873 16.0957C31.9913 15.3202 31.9387 14.5396 31.8308 13.7757ZM30.4717 8.57503C31.3924 6.96053 31.9874 4.84386 31.9874 3.18265C31.9874 2.05241 31.3733 0.960387 30.423 0.400449C29.5997 -0.0846807 28.6576 -0.10254 27.8383 0.351368C26.9337 0.852545 26.0871 1.13867 25.2684 1.41536C23.8946 1.87957 22.4741 2.35958 21.2926 3.77962C20.4245 4.82307 20.0172 6.14033 20.1459 7.4885C20.3426 10.0463 22.671 12.1192 25.2341 12.077C27.3238 12.077 29.1838 10.8333 30.4717 8.57503ZM29.1551 2.55247C29.3173 2.64801 29.4896 2.9014 29.4896 3.18265C29.4896 4.21423 29.1224 5.89904 28.3019 7.3377C27.4077 9.02438 25.4621 10.4366 23.5613 8.98804C23.0274 8.55055 22.6975 7.93373 22.6323 7.25115C22.5674 6.57069 22.7735 5.9051 23.2127 5.37726C23.9426 4.49992 24.8342 4.19862 26.0681 3.78168C26.9488 3.48401 27.947 3.14675 29.0488 2.53623C29.0615 2.52924 29.071 2.52399 29.0839 2.52399C29.0993 2.52393 29.1193 2.53142 29.1551 2.55247ZM17.3131 6.58187C17.3131 7.44404 16.6141 8.14298 15.752 8.14298C13.6834 8.06642 13.684 5.09701 15.752 5.02076C16.6141 5.02076 17.3131 5.7197 17.3131 6.58187ZM11.6931 9.0172C11.6931 9.87937 10.9941 10.5783 10.132 10.5783C8.06345 10.5017 8.06402 7.53234 10.132 7.45609C10.9941 7.45609 11.6931 8.15503 11.6931 9.0172ZM8.38354 13.9503C8.38354 14.8125 7.6846 15.5114 6.82243 15.5114C4.75391 15.4348 4.75447 12.4654 6.82243 12.3892C7.6846 12.3892 8.38354 13.0881 8.38354 13.9503ZM7.69665 18.259C8.55882 18.259 9.25776 18.9579 9.25776 19.8201C9.1812 21.8886 6.21179 21.888 6.13555 19.8201C6.13555 18.9579 6.83449 18.259 7.69665 18.259Z" fill="#7780a1"/>
</g>
<defs>
<clipPath id="clip0_4_2814">
<rect width="32" height="32" fill="white"/>
</clipPath>
</defs>
</svg>
