<svg width="18" height="18" viewBox="0 0 18 18" fill="none" xmlns="http://www.w3.org/2000/svg">
<path d="M9 5.8V6.6C10.325 6.60313 11.3969 7.675 11.4 9C11.3969 10.325 10.325 11.3969 9 11.4C7.675 11.3969 6.60313 10.325 6.6 9C6.60313 7.675 7.675 6.60313 9 6.6V5.8V5C6.79062 5 5 6.79062 5 9C5 11.2094 6.79062 13 9 13C11.2094 13 13 11.2094 13 9C13 6.79062 11.2094 5 9 5V5.8Z" fill="white"/>
<path d="M0.9 9.9H1.8C2.2957 9.9 2.7 9.49572 2.7 9C2.7 8.5043 2.2957 8.1 1.8 8.1H0.9C0.404297 8.1 0 8.5043 0 9C0 9.49572 0.404297 9.9 0.9 9.9ZM8.1 0.9V1.8C8.1 2.2957 8.5043 2.7 9 2.7C9.49572 2.7 9.9 2.2957 9.9 1.8V0.9C9.9 0.404297 9.49572 0 9 0C8.5043 0 8.1 0.404297 8.1 0.9ZM16.2 9.9H17.1C17.5957 9.9 18 9.49572 18 9C18 8.5043 17.5957 8.1 17.1 8.1H16.2C15.7043 8.1 15.3 8.5043 15.3 9C15.3 9.49572 15.7043 9.9 16.2 9.9ZM8.1 16.2V17.1C8.1 17.5957 8.5043 18 9 18C9.49572 18 9.9 17.5957 9.9 17.1V16.2C9.9 15.7043 9.49572 15.3 9 15.3C8.5043 15.3 8.1 15.7043 8.1 16.2ZM2.60508 3.87773L3.23437 4.50703C3.58594 4.8586 4.15547 4.8586 4.50703 4.50703C4.8586 4.15547 4.8586 3.58594 4.50703 3.23437L3.87773 2.60508C3.52617 2.25352 2.95664 2.25352 2.60508 2.60508C2.25352 2.95664 2.25352 3.52617 2.60508 3.87773ZM14.1223 2.60508L13.493 3.23437C13.1414 3.58594 13.1414 4.15547 13.493 4.50703C13.8445 4.8586 14.414 4.8586 14.7656 4.50703L15.3949 3.87773C15.7465 3.52617 15.7465 2.95664 15.3949 2.60508C15.0433 2.25352 14.4738 2.25352 14.1223 2.60508ZM13.493 14.7656L14.1223 15.3949C14.4738 15.7465 15.0433 15.7465 15.3949 15.3949C15.7465 15.0433 15.7465 14.4738 15.3949 14.1223L14.7656 13.493C14.414 13.1414 13.8445 13.1414 13.493 13.493C13.1414 13.8445 13.1414 14.414 13.493 14.7656ZM3.23437 13.493L2.60508 14.1223C2.25352 14.4738 2.25352 15.0433 2.60508 15.3949C2.95664 15.7465 3.52617 15.7465 3.87773 15.3949L4.50703 14.7656C4.8586 14.414 4.8586 13.8445 4.50703 13.493C4.15547 13.1414 3.58594 13.1414 3.23437 13.493Z" fill="white"/>
</svg>
