<svg width="20" height="20" viewBox="0 0 20 20" fill="none" xmlns="http://www.w3.org/2000/svg">
<path fill-rule="evenodd" clip-rule="evenodd" d="M18 0H2C0.89543 0 0 0.89543 0 2V18C0 19.1046 0.89543 20 2 20H18C19.1046 20 20 19.1046 20 18V2C20 0.89543 19.1046 0 18 0ZM15.3502 6.23936C15.9312 6.1722 16.4847 6.02331 17 5.80205C16.615 6.35858 16.1277 6.84744 15.5661 7.23946C15.5715 7.35868 15.5742 7.47842 15.5742 7.59868C15.5742 11.2685 12.686 15.5 7.40283 15.5C5.78051 15.5 4.27126 15.0403 3 14.2526C3.22507 14.2786 3.45391 14.2917 3.68544 14.2917C5.03154 14.2917 6.26995 13.8476 7.25261 13.1026C5.99588 13.0802 4.93516 12.2769 4.56956 11.1737C4.74455 11.2055 4.92493 11.2232 5.10961 11.2232C5.37183 11.2232 5.62598 11.1893 5.86666 11.1258C4.55232 10.8712 3.56267 9.74881 3.56267 8.40302V8.36814C3.94981 8.57587 4.39295 8.70081 4.86354 8.71539C4.09303 8.21769 3.58636 7.36753 3.58636 6.4044C3.58636 5.89472 3.72797 5.41784 3.97458 5.0076C5.39175 6.68813 7.50783 7.79391 9.89474 7.90948C9.84628 7.70697 9.82043 7.49456 9.82043 7.27694C9.82043 5.74374 11.1062 4.5 12.6925 4.5C13.5184 4.5 14.2647 4.83736 14.7886 5.37723C15.4434 5.25228 16.0583 5.02113 16.6129 4.70304C16.3986 5.35172 15.9436 5.89576 15.3502 6.23936Z" fill="#7780A1"/>
</svg>
