<svg width="32" height="32" viewBox="0 0 32 32" fill="none" xmlns="http://www.w3.org/2000/svg">
<g clip-path="url(#clip0_4_2833)">
<path d="M16 32C11.7262 32 7.70831 30.3357 4.68625 27.3137C1.66431 24.2917 0 20.2738 0 16C0 11.7262 1.66431 7.70831 4.68625 4.68625C7.70831 1.66431 11.7262 0 16 0C20.2738 0 24.2917 1.66431 27.3137 4.68625C30.3357 7.70831 32 11.7262 32 16C32 20.2738 30.3357 24.2917 27.3137 27.3137C24.2917 30.3357 20.2738 32 16 32ZM16 2.5C8.55606 2.5 2.5 8.55606 2.5 16C2.5 23.4439 8.55606 29.5 16 29.5C23.4439 29.5 29.5 23.4439 29.5 16C29.5 8.55606 23.4439 2.5 16 2.5ZM15.9375 17.1875C12.6291 17.1875 9.9375 14.4959 9.9375 11.1875C9.9375 7.87906 12.6291 5.1875 15.9375 5.1875C19.2459 5.1875 21.9375 7.87906 21.9375 11.1875C21.9375 14.4959 19.2459 17.1875 15.9375 17.1875ZM15.9375 7.6875C14.0076 7.6875 12.4375 9.25762 12.4375 11.1875C12.4375 13.1174 14.0076 14.6875 15.9375 14.6875C17.8674 14.6875 19.4375 13.1174 19.4375 11.1875C19.4375 9.25762 17.8674 7.6875 15.9375 7.6875ZM23.857 24.467C24.3911 24.0296 24.4694 23.242 24.032 22.7079C22.2644 20.5501 19.6528 19.3125 16.8666 19.3125H15.3834C12.5972 19.3125 9.98556 20.5501 8.21806 22.7079C7.78062 23.242 7.85894 24.0296 8.39306 24.4671C8.92712 24.9046 9.71469 24.8261 10.1522 24.2921C11.4428 22.7163 13.3496 21.8125 15.3834 21.8125H16.8666C18.9004 21.8125 20.8072 22.7162 22.0979 24.2921C22.3451 24.5938 22.7038 24.75 23.0656 24.75C23.3443 24.75 23.6247 24.6573 23.857 24.467Z" fill="#7780a1"/>
</g>
<defs>
<clipPath id="clip0_4_2833">
<rect width="32" height="32" fill="white"/>
</clipPath>
</defs>
</svg>
