<svg width="32" height="32" viewBox="0 0 32 32" fill="none" xmlns="http://www.w3.org/2000/svg">
<g clip-path="url(#clip0_4_2808)">
<path d="M30.7479 8.81594C31.4381 8.81594 31.9977 8.2564 31.9977 7.56613V6.25382C31.9977 2.80546 29.1921 0 25.7438 0C25.7438 0 6.15243 0.00293706 6.10413 0.00862372C4.45506 0.0662402 2.87098 0.773885 1.72915 1.97033C0.558764 3.19665 -0.0513958 4.79166 0.00603315 6.46985C0.0036585 6.50166 0.00240869 24.4964 0.00240869 24.4964C0.00240869 28.6339 3.36853 32 7.50605 32H25.7438C29.1922 32 31.9977 29.1945 31.9977 25.7462V16.2571C31.9977 12.8087 29.1922 10.0033 25.7438 10.0033H6.25142C4.24478 10.0033 2.59965 8.43487 2.5061 6.43267C2.45854 5.41457 2.8248 4.44272 3.53732 3.69608C4.26015 2.93869 5.27531 2.50438 6.32241 2.50438C6.35934 2.50438 25.7437 2.49963 25.7437 2.49963C27.8138 2.49963 29.4979 4.18375 29.4979 6.25382V7.56613C29.498 8.2564 30.0576 8.81594 30.7479 8.81594ZM6.25142 12.5029H25.7438C27.8138 12.5029 29.498 14.187 29.498 16.2571V25.7462C29.498 27.8162 27.8138 29.5004 25.7438 29.5004H7.50605C4.74683 29.5004 2.50204 27.2556 2.50204 24.4964V11.2581C3.54738 12.0412 4.84625 12.5029 6.25142 12.5029ZM26.9984 21.0016C26.9984 21.8644 26.2989 22.5639 25.4361 22.5639C23.3638 22.4816 23.3644 19.5214 25.4361 19.4394C26.2989 19.4394 26.9984 20.1388 26.9984 21.0016ZM26.9984 6.25382C26.9984 5.56355 26.4389 5.00401 25.7486 5.00401H6.25148C4.59323 5.07 4.59448 7.43821 6.25148 7.50364H25.7486C26.4388 7.50364 26.9984 6.94409 26.9984 6.25382Z" fill="#7780a1"/>
</g>
<defs>
<clipPath id="clip0_4_2808">
<rect width="32" height="32" fill="white"/>
</clipPath>
</defs>
</svg>
